<svg xmlns="http://www.w3.org/2000/svg" width="25" height="25" viewBox="0 -18 256 256">
  <path d="M245.97 168.943c-13.662 7.121-84.434 36.22-99.501 44.075-15.067 7.856-23.437 7.78-35.34 2.09-11.902-5.69-87.216-36.112-100.783-42.597C3.566 169.271 0 166.535 0 163.951v-25.876s98.05-21.345 113.879-27.024c15.828-5.679 21.32-5.884 34.79-.95 13.472 4.936 94.018 19.468 107.331 24.344l-.006 25.51c.002 2.558-3.07 5.364-10.024 8.988" fill="#ef4444"/>
  <path d="M245.965 143.44c-13.661 7.118-84.431 36.218-99.498 44.072-15.066 7.857-23.436 7.78-35.338 2.09-11.903-5.686-87.214-36.113-100.78-42.594-13.566-6.485-13.85-10.948-.524-16.166 13.326-5.22 88.224-34.605 104.055-40.284 15.828-5.677 21.319-5.884 34.789-.948 13.471 4.934 83.819 32.935 97.13 37.81 13.316 4.881 13.827 8.9.166 16.02" fill="#dc2626"/>
  <path d="M245.97 127.074c-13.662 7.122-84.434 36.22-99.501 44.078-15.067 7.853-23.437 7.777-35.34 2.087-11.902-5.687-87.216-36.112-100.783-42.597C3.566 127.399 0 124.663 0 122.08V96.204s98.05-21.344 113.879-27.023c15.828-5.679 21.32-5.884 34.79-.95C162.14 73.166 242.69 91.7 256 96.574l-.006 25.513c.002 2.557-3.07 5.363-10.024 8.987" fill="#ef4444"/>
  <path d="M245.965 101.57c-13.661 7.12-84.431 36.218-99.498 44.075-15.066 7.854-23.436 7.777-35.338 2.087-11.903-5.686-87.214-36.112-100.78-42.594-13.566-6.483-13.85-10.947-.524-16.167C23.151 83.756 98.05 54.373 113.877 48.69c15.828-5.678 21.319-5.884 34.789-.949 13.471 4.934 83.819 32.933 97.13 37.81 13.316 4.88 13.827 8.9.166 16.02" fill="#dc2626"/>
  <path d="M245.97 83.653c-13.662 7.12-84.434 36.22-99.501 44.078-15.067 7.854-23.437 7.777-35.34 2.087-11.902-5.687-87.216-36.113-100.783-42.595C3.566 84.08 0 81.343 0 78.757V52.881s98.05-21.344 113.879-27.023c15.828-5.679 21.32-5.884 34.79-.95 13.472 4.936 94.018 19.468 107.331 24.344l-.006 25.512c.002 2.555-3.07 5.363-10.024 8.989" fill="#ef4444"/>
  <path d="M245.965 58.149c-13.661 7.12-84.431 36.218-99.498 44.075-15.066 7.854-23.436 7.777-35.338 2.09-11.903-5.69-87.214-36.116-100.78-42.597-13.566-6.484-13.85-10.948-.524-16.166C23.151 40.333 98.05 10.95 113.877 5.27c15.828-5.679 21.319-5.884 34.789-.949 13.471 4.934 83.819 32.933 97.13 37.81 13.316 4.88 13.827 8.9.166 16.019" fill="#f87171"/>
</svg>
